<svg xmlns="http://www.w3.org/2000/svg" viewBox="0 0 1200 900"><defs><linearGradient id="h" x2="1" y2="1"><stop stop-color="#073c43"/><stop offset="1" stop-color="#12b5a0"/></linearGradient></defs><rect width="1200" height="900" fill="url(#h)"/><circle cx="965" cy="170" r="210" fill="#fff" opacity=".05"/><circle cx="255" cy="775" r="260" fill="#07152d" opacity=".18"/><path d="M600 700C410 562 310 472 310 322c0-104 73-177 170-177 61 0 105 30 120 82 15-52 59-82 120-82 97 0 170 73 170 177 0 150-100 240-290 378z" fill="#f2f7f7" opacity=".94"/><path d="M395 420h128l42-104 65 225 52-121h124" fill="none" stroke="#ef476f" stroke-width="20" stroke-linecap="round" stroke-linejoin="round"/><g fill="#f5b92e"><circle cx="235" cy="205" r="10"/><circle cx="1000" cy="540" r="8"/><circle cx="900" cy="750" r="5"/></g></svg>
